#!OML:ASF E:\Style4\Style4.ASF
:FULLY-SPECIFIED
:DEGREES
2557
root -0.439 18.0201 -1.52773 -0.546795 -2.42758 2.0008
lowerback 3.49718 2.89408 -0.702586
upperback 1.35431 3.8244 -1.02102
thorax -0.543893 1.9121 -0.801163
lowerneck 2.07095 -5.30976 -6.52195
upperneck 7.66962 -7.43604 5.34293
head 2.6074 -3.76794 2.74344
rclavicle -2.57659e-014 -6.28657e-015
rhumerus 18.9686 4.94686 -38.0488
rradius 121.818
rwrist -1.10221
rhand -29.1257 26.7235
rfingers 7.12502
rthumb -2.47307 -3.24196
lclavicle -2.57659e-014 -6.28657e-015
lhumerus -14.0426 -35.1045 64.3528
lradius 122.33
lwrist -2.07164
lhand -22.5784 25.1483
lfingers 7.12502
lthumb 3.85028 55.0932
rfemur -6.3626 4.3819 17.5911
rtibia 23.5406
rfoot -15.8669 -13.6846
rtoes -9.48585
lfemur -1.82155 0.0580521 -21.1266
ltibia 19.5587
lfoot -17.9081 13.9826
ltoes -12.9116
2558
root -0.446546 18.0102 -1.53955 -0.585021 -2.14205 2.03402
lowerback 3.65172 2.88797 -0.743246
upperback 1.34173 3.81209 -1.05129
thorax -0.643678 1.90588 -0.818207
lowerneck 2.01682 -5.27636 -6.69818
upperneck 7.86755 -7.40037 5.43419
head 2.69555 -3.75286 2.80558
rclavicle 3.33865e-014 8.44835e-016
rhumerus 17.4557 5.2867 -39.8423
rradius 122.037
rwrist 1.91123
rhand -29.6394 26.7507
rfingers 7.12502
rthumb -2.9692 -3.20842
lclavicle 3.33865e-014 8.44835e-016
lhumerus -12.7972 -34.0746 63.7146
lradius 122.393
lwrist -3.59149
lhand -23.4879 25.6684
lfingers 7.12502
lthumb 2.97192 55.6274
rfemur -6.47168 4.15076 17.5756
rtibia 23.8311
rfoot -16.0045 -13.7438
rtoes -9.44129
lfemur -2.08416 0.0218711 -21.1119
ltibia 19.9774
lfoot -17.974 13.7403
ltoes -13.0121
2559
root -0.453104 18.0014 -1.54934 -0.625098 -1.93318 2.10152
lowerback 3.71203 2.88816 -0.869013
upperback 1.38472 3.80754 -1.04095
thorax -0.642128 1.90328 -0.739641
lowerneck 1.9521 -5.23017 -6.93477
upperneck 8.01328 -7.34058 5.46632
head 2.76643 -3.72869 2.8597
rclavicle -3.58434e-014 1.19519e-014
rhumerus 16.0647 5.57488 -41.5434
rradius 122.051
rwrist 4.87411
rhand -30.532 27.2668
rfingers 7.12502
rthumb -3.83117 -2.67846
lclavicle -3.58434e-014 1.19519e-014
lhumerus -11.6354 -32.8991 63.2259
lradius 122.382
lwrist -4.92431
lhand -24.4131 26.1229
lfingers 7.12502
lthumb 2.07836 56.0926
rfemur -6.62302 3.99047 17.5144
rtibia 24.1933
rfoot -16.207 -13.7386
rtoes -9.12996
lfemur -2.32546 0.0306617 -21.1467
ltibia 20.3811
lfoot -18.0187 13.6459
ltoes -13.8985
2560
root -0.45952 17.9913 -1.55917 -0.703846 -1.74009 2.1035
lowerback 3.84542 2.88969 -0.907419
upperback 1.4206 3.80646 -1.02732
thorax -0.683141 1.9026 -0.710695
lowerneck 2.00358 -5.1983 -7.0611
upperneck 8.0392 -7.2977 5.42255
head 2.76689 -3.71274 2.87053
rclavicle -8.32411e-016 9.88954e-015
rhumerus 14.6565 5.82686 -43.2301
rradius 121.901
rwrist 7.8154
rhand -31.8253 27.9456
rfingers 7.12502
rthumb -5.08008 -1.97353
lclavicle -8.32411e-016 9.88954e-015
lhumerus -10.6375 -31.6339 62.8419
lradius 122.298
lwrist -6.02708
lhand -25.1305 26.0279
lfingers 7.12502
lthumb 1.38556 56.0031
rfemur -6.76008 3.81659 17.5287
rtibia 24.6059
rfoot -16.4249 -13.7183
rtoes -8.96173
lfemur -2.51408 0.0202855 -21.1024
ltibia 20.7905
lfoot -18.1003 13.4076
ltoes -13.6941
2561
root -0.464706 17.978 -1.57052 -0.811421 -1.53166 2.10297
lowerback 4.00757 2.89032 -0.92336
upperback 1.47483 3.80462 -1.02013
thorax -0.719462 1.90158 -0.701729
lowerneck 2.16528 -5.1554 -7.09353
upperneck 7.95329 -7.24145 5.34941
head 2.70186 -3.68905 2.85763
rclavicle -1.20513e-014 3.52843e-015
rhumerus 13.2699 6.00179 -44.9586
rradius 121.896
rwrist 10.1994
rhand -32.7702 28.3451
rfingers 7.12502
rthumb -5.99234 -1.55013
lclavicle -1.20513e-014 3.52843e-015
lhumerus -9.71089 -30.4326 62.5418
lradius 122.172
lwrist -7.01776
lhand -25.819 25.935
lfingers 7.12502
lthumb 0.720539 55.9135
rfemur -6.8848 3.58378 17.543
rtibia 25.0384
rfoot -16.6526 -13.7012
rtoes -8.90921
lfemur -2.7266 0.0517315 -21.0494
ltibia 21.2735
lfoot -18.1368 13.0162
ltoes -12.8624
2562
root -0.469611 17.9631 -1.58469 -0.898863 -1.28051 2.10137
lowerback 4.14407 2.86985 -0.930843
upperback 1.5561 3.77577 -1.0173
thorax -0.712983 1.88707 -0.698246
lowerneck 2.2729 -5.12193 -7.11331
upperneck 7.90986 -7.19611 5.27682
head 2.66147 -3.66968 2.84065
rclavicle -3.74927e-014 6.48535e-015
rhumerus 11.9881 6.05102 -46.7081
rradius 121.921
rwrist 11.7904
rhand -33.2748 28.8109
rfingers 7.12502
rthumb -6.47954 -1.06996
lclavicle -3.74927e-014 6.48535e-015
lhumerus -8.79497 -29.2864 62.2692
lradius 121.957
lwrist -8.07055
lhand -26.4796 26.0938
lfingers 7.12502
lthumb 0.0825636 56.0735
rfemur -7.03708 3.37241 17.5555
rtibia 25.4809
rfoot -16.9066 -13.7112
rtoes -8.75418
lfemur -3.0261 0.0203272 -21.0065
ltibia 21.8535
lfoot -18.293 12.8054
ltoes -13.0478
2563
root -0.474988 17.9476 -1.59928 -0.968133 -1.04741 2.00065
lowerback 4.2151 2.85225 -0.872384
upperback 1.67213 3.75561 -0.945088
thorax -0.634769 1.87686 -0.656021
lowerneck 2.36871 -5.10873 -7.18516
upperneck 7.84526 -7.17638 5.19767
head 2.62029 -3.6643 2.83009
rclavicle -9.73734e-016 -3.50358e-015
rhumerus 10.7261 6.01352 -48.3377
rradius 121.897
rwrist 13.0326
rhand -33.8508 29.3834
rfingers 7.12502
rthumb -7.03558 -0.479631
lclavicle -9.73734e-016 -3.50358e-015
lhumerus -7.96415 -28.1608 62.1091
lradius 121.754
lwrist -9.1241
lhand -26.9096 26.1084
lfingers 7.12502
lthumb -0.332773 56.0879
rfemur -7.23316 3.13399 17.6791
rtibia 25.951
rfoot -17.1138 -13.7309
rtoes -8.67575
lfemur -3.39268 0.0524352 -20.839
ltibia 22.5141
lfoot -18.5092 12.606
ltoes -13.7531
2564
root -0.480038 17.9318 -1.61402 -1.09464 -0.863432 1.86948
lowerback 4.34968 2.79453 -0.812511
upperback 1.80876 3.68167 -0.821274
thorax -0.574321 1.83958 -0.562157
lowerneck 2.40925 -5.03346 -7.39003
upperneck 7.85365 -7.07655 5.17466
head 2.61756 -3.62143 2.86389
rclavicle -3.79339e-014 1.40873e-014
rhumerus 9.56527 6.05505 -49.9183
rradius 121.914
rwrist 14.2928
rhand -34.2633 29.5798
rfingers 7.12502
rthumb -7.4337 -0.269619
lclavicle -3.79339e-014 1.40873e-014
lhumerus -7.27717 -26.935 62.0336
lradius 121.583
lwrist -10.0541
lhand -27.1303 25.6098
lfingers 7.12502
lthumb -0.545895 55.5888
rfemur -7.39573 2.9102 17.8375
rtibia 26.4544
rfoot -17.3251 -13.6719
rtoes -8.35378
lfemur -3.72676 0.160325 -20.6306
ltibia 23.2196
lfoot -18.7356 12.3084
ltoes -14.2303
2565
root -0.483631 17.9132 -1.63039 -1.25125 -0.706629 1.77142
lowerback 4.55987 2.69603 -0.776211
upperback 1.94671 3.55156 -0.674605
thorax -0.557417 1.77402 -0.432922
lowerneck 2.43819 -4.91732 -7.77801
upperneck 7.84399 -6.92618 5.22027
head 2.61929 -3.55719 2.95663
rclavicle 6.99846e-014 -2.62893e-014
rhumerus 8.55507 6.27255 -51.4366
rradius 121.775
rwrist 15.5203
rhand -34.9664 29.8453
rfingers 7.12502
rthumb -8.11236 0.0210296
lclavicle 6.99846e-014 -2.62893e-014
lhumerus -6.77837 -25.5885 62.0462
lradius 121.343
lwrist -10.984
lhand -27.3595 25.0993
lfingers 7.12502
lthumb -0.7673 55.0777
rfemur -7.55633 2.70339 17.9571
rtibia 26.9888
rfoot -17.4772 -13.6656
rtoes -8.47262
lfemur -4.04829 0.269394 -20.4717
ltibia 23.9593
lfoot -18.9058 12.0109
ltoes -14.3501
2566
root -0.48754 17.8926 -1.64752 -1.39941 -0.549905 1.77054
lowerback 4.78048 2.67219 -0.800144
upperback 2.07663 3.51754 -0.598458
thorax -0.553143 1.75645 -0.347493
lowerneck 2.54981 -4.86521 -7.96048
upperneck 7.718 -6.85969 5.20205
head 2.55931 -3.53003 2.98946
rclavicle 1.42939e-014 -4.22417e-015
rhumerus 7.39556 6.31331 -52.8878
rradius 121.54
rwrist 16.6339
rhand -35.7456 30.3437
rfingers 7.12502
rthumb -8.86431 0.549901
lclavicle 1.42939e-014 -4.22417e-015
lhumerus -6.21843 -24.5352 62.0727
lradius 120.929
lwrist -11.8985
lhand -28.4526 24.8465
lfingers 7.12502
lthumb -1.82308 54.8184
rfemur -7.75781 2.52301 17.9638
rtibia 27.5672
rfoot -17.7161 -13.6342
rtoes -8.50132
lfemur -4.36296 0.42504 -20.4104
ltibia 24.671
lfoot -19.0621 11.6134
ltoes -14.1238
2567
root -0.489887 17.8712 -1.66613 -1.54513 -0.369351 1.80326
lowerback 5.02764 2.72286 -0.739412
upperback 2.20309 3.58523 -0.627469
thorax -0.55522 1.79062 -0.423397
lowerneck 2.67813 -4.90069 -7.88638
upperneck 7.578 -6.90688 5.13026
head 2.48522 -3.55298 2.95342
rclavicle 2.85132e-014 -9.14409e-015
rhumerus 6.03815 6.05377 -54.3718
rradius 121.259
rwrist 17.7247
rhand -36.2826 30.8467
rfingers 7.12502
rthumb -9.38249 1.07549
lclavicle 2.85132e-014 -9.14409e-015
lhumerus -5.54245 -23.879 62.0529
lradius 120.49
lwrist -12.6971
lhand -30.4369 25.2583
lfingers 7.12502
lthumb -3.73941 55.2053
rfemur -7.98053 2.2633 17.9227
rtibia 28.1938
rfoot -17.935 -13.5864
rtoes -8.48223
lfemur -4.6538 0.481675 -20.4052
ltibia 25.3266
lfoot -19.2183 11.3664
ltoes -14.311
2568
root -0.490581 17.8502 -1.6816 -1.737 -0.170844 1.87264
lowerback 5.24329 2.74989 -0.717192
upperback 2.3927 3.62102 -0.640754
thorax -0.478043 1.80858 -0.456612
lowerneck 2.7623 -4.91252 -7.87296
upperneck 7.48721 -6.92309 5.09388
head 2.43821 -3.56135 2.94053
rclavicle 2.45313e-014 -6.4605e-015
rhumerus 4.90141 5.7827 -55.7299
rradius 120.855
rwrist 18.696
rhand -36.7447 31.204
rfingers 7.12502
rthumb -9.82835 1.45335
lclavicle 2.45313e-014 -6.4605e-015
lhumerus -4.85838 -23.198 62.0416
lradius 120.015
lwrist -13.3723
lhand -31.4578 25.8318
lfingers 7.12502
lthumb -4.72519 55.7591
rfemur -8.13538 1.90676 17.8211
rtibia 28.8408
rfoot -18.2352 -13.4318
rtoes -8.53674
lfemur -4.84391 0.522761 -20.4553
ltibia 25.9411
lfoot -19.3414 11.0445
ltoes -14.0583
